# xmcd CD database file
#
# Track frame offsets:
#	150
#	23440
#	41445
#	59186
#	79110
#	105405
#	114476
#	134788
#	148514
#	172927
#	193951
#	215129
#	228554
#
# Disc length: 3100 seconds
#
# Revision: 0
# Processed by: cddbd v1.5.2PL0 Copyright (c) Steve Scherf et al.
# Submitted via: CDex 1.70beta2
#
DISCID=bd0c1a0d
DTITLE=Purple Jazz Project - 暴走、JAZZ
DYEAR=2011
DGENRE=Jazz
TTITLE0=魂のルフラン
TTITLE1=残酷な天使のテーゼ
TTITLE2=The Beast II
TTITLE3=G線上のアリア
TTITLE4=THANATOS - IF I CAN'T BE YOURS -
TTITLE5=次回予告
TTITLE6=心よ原始に戻れ
TTITLE7=主よ、人の望みの喜びよ
TTITLE8=集結の園へ
TTITLE9=Kanon D-Dur
TTITLE10=Komm,susser Tod ～甘き死よ、来たれ～
TTITLE11=FLY ME TO THE MOON
TTITLE12=次回予告 ver.2
EXTD=YEAR: 2011
EXTT0=
EXTT1=
EXTT2=
EXTT3=
EXTT4=
EXTT5=
EXTT6=
EXTT7=
EXTT8=
EXTT9=
EXTT10=
EXTT11=
EXTT12=
PLAYORDER=
